#!OML:ASF X:\für Bonn\!DataBase\2005_08_11_Bastian_Final\c3d\Bastian.ASF
:FULLY-SPECIFIED
:DEGREES
136
root -0.664114 16.8364 -13.1425 128.517 16.3778 -196.105
lowerback 28.0272 -0.921791 -2.26721
upperback 21.2037 6.00767 -8.56068
thorax 9.32034 6.90975 -8.56313
lowerneck 6.1298 -0.844709 -16.9136
upperneck 7.57792 -1.04461 -0.160137
head 1.56194 -0.606836 2.92831
rclavicle 9.56154e-014 -4.73108e-014
rhumerus -14.2957 39.058 -86.1781
rradius 104.244
rwrist 11.0672
rhand -15.8627 5.79451
rfingers 7.12502
rthumb 10.3326 -23.9317
lclavicle 9.56154e-014 -4.73108e-014
lhumerus 7.83424 -23.5796 77.0985
lradius 111.673
lwrist 38.1733
lhand -13.9141 -10.5758
lfingers 7.12502
lthumb 12.2119 19.0477
rfemur 38.9665 12.6838 16.6195
rtibia 34.8495
rfoot -198.6 -176.206
rtoes 4.17104
lfemur -80.2929 33.609 -8.40053
ltibia 92.3206
lfoot 13.5356 -5.6188
ltoes -25.476
137
root -0.703535 16.8425 -13.2207 129.723 16.2841 -195.434
lowerback 27.2589 -1.1222 -1.93736
upperback 20.8427 5.44951 -8.32199
thorax 9.10469 6.45218 -8.37887
lowerneck 6.12485 -0.701337 -16.9562
upperneck 7.12182 -0.934003 -0.0166276
head 1.39814 -0.54146 2.98514
rclavicle -1.5207e-014 3.57812e-015
rhumerus -17.7914 38.6467 -87.3066
rradius 104.417
rwrist 11.3677
rhand -15.7441 6.20188
rfingers 7.12502
rthumb 10.4471 -23.5185
lclavicle -1.5207e-014 3.57812e-015
lhumerus 6.37287 -23.7976 77.8472
lradius 112.004
lwrist 38.0081
lhand -14.1434 -10.9879
lfingers 7.12502
lthumb 11.9908 18.6486
rfemur 38.2541 12.4361 16.929
rtibia 34.9549
rfoot -198.956 -176.677
rtoes 3.58909
lfemur -80.6334 34.1408 -10.1247
ltibia 95.3896
lfoot 12.6794 -5.71013
ltoes -26.9814
138
root -0.741583 16.8384 -13.302 130.91 16.1628 -194.658
lowerback 26.5463 -1.36185 -1.53008
upperback 20.4862 4.86514 -8.06921
thorax 8.87881 5.99959 -8.22502
lowerneck 6.04335 -0.582974 -16.8602
upperneck 6.7289 -0.82249 0.0284793
head 1.26666 -0.475992 2.9812
rclavicle 6.55989e-015 -2.38542e-014
rhumerus -21.4171 38.0992 -88.5146
rradius 104.634
rwrist 11.4901
rhand -15.7167 6.68552
rfingers 7.12502
rthumb 10.4735 -23.0336
lclavicle 6.55989e-015 -2.38542e-014
lhumerus 4.71438 -24.0279 78.7008
lradius 112.407
lwrist 37.718
lhand -14.2906 -11.4746
lfingers 7.12502
lthumb 11.8489 18.1702
rfemur 37.5796 12.1025 17.3199
rtibia 35.1348
rfoot -199.382 -177.167
rtoes 3.05695
lfemur -80.5396 34.5717 -11.5981
ltibia 98.1677
lfoot 11.8981 -5.08371
ltoes -27.6375
139
root -0.780149 16.8322 -13.38 132.132 16.0913 -193.858
lowerback 25.8448 -1.57891 -1.06789
upperback 20.111 4.31125 -7.76685
thorax 8.6393 5.56408 -8.0583
lowerneck 5.91733 -0.493915 -16.8099
upperneck 6.39246 -0.735685 0.0859047
head 1.1658 -0.426079 2.99046
rclavicle 9.8796e-014 0
rhumerus -25.1372 37.445 -89.6714
rradius 104.926
rwrist 11.4943
rhand -15.7783 7.15966
rfingers 7.12502
rthumb 10.414 -22.5624
lclavicle 9.8796e-014 0
lhumerus 3.02636 -24.2628 79.6446
lradius 112.85
lwrist 37.5261
lhand -14.3668 -11.9867
lfingers 7.12502
lthumb 11.7754 17.6623
rfemur 36.8458 11.7791 17.7624
rtibia 35.2905
rfoot -199.756 -177.64
rtoes 2.52923
lfemur -80.119 35.003 -12.8299
ltibia 100.644
lfoot 11.3797 -4.0826
ltoes -27.7379
140
root -0.820594 16.8277 -13.4526 133.35 16.1169 -193.125
lowerback 25.1846 -1.77449 -0.542384
upperback 19.6842 3.78729 -7.50989
thorax 8.34132 5.15367 -7.99104
lowerneck 5.80746 -0.403148 -16.6734
upperneck 6.05492 -0.642237 0.0954295
head 1.06014 -0.370769 2.96654
rclavicle 2.11706e-014 -3.45885e-014
rhumerus -28.8731 36.7457 -90.8709
rradius 105.249
rwrist 11.3519
rhand -16.0207 7.64984
rfingers 7.12502
rthumb 10.1801 -22.0839
lclavicle 2.11706e-014 -3.45885e-014
lhumerus 1.41559 -24.5236 80.5031
lradius 113.316
lwrist 37.4127
lhand -14.4432 -12.4373
lfingers 7.12502
lthumb 11.7017 17.2159
rfemur 36.0765 11.5283 18.1671
rtibia 35.344
rfoot -200.075 -178.01
rtoes 1.932
lfemur -79.2705 35.5041 -13.7793
ltibia 102.778
lfoot 11.2452 -2.81986
ltoes -27.1904
141
root -0.858547 16.8447 -13.513 134.59 16.218 -192.458
lowerback 24.5978 -1.92814 -0.0233782
upperback 18.8921 3.2661 -7.06742
thorax 8.3052 4.79355 -8.11719
lowerneck 5.66098 -0.31475 -16.5442
upperneck 5.76505 -0.538623 0.0973389
head 0.976763 -0.312438 2.94134
rclavicle 4.2043e-014 -3.49861e-014
rhumerus -32.5449 35.9542 -91.9924
rradius 105.642
rwrist 11.0267
rhand -16.2507 8.15272
rfingers 7.12502
rthumb 9.95834 -21.5917
lclavicle 4.2043e-014 -3.49861e-014
lhumerus -0.1985 -24.7713 81.3939
lradius 113.823
lwrist 37.3784
lhand -14.4531 -12.8368
lfingers 7.12502
lthumb 11.6922 16.8169
rfemur 35.2874 11.3786 18.5862
rtibia 35.2189
rfoot -200.219 -178.328
rtoes 1.59202
lfemur -78.0938 36.0676 -14.4812
ltibia 104.546
lfoot 11.587 -1.81137
ltoes -27.5987
